<svg xmlns="http://www.w3.org/2000/svg" xmlns:xlink="http://www.w3.org/1999/xlink" width="1920" zoomAndPan="magnify" viewBox="0 0 1440 809.999993" height="1080" preserveAspectRatio="xMidYMid meet" version="1.0"><defs><clipPath id="68ce6a064d"><path d="M 602.671875 281.609375 L 850.304688 281.609375 L 850.304688 528.167969 L 602.671875 528.167969 Z M 602.671875 281.609375 " clip-rule="nonzero"/></clipPath><clipPath id="9aa9c57009"><path d="M 602.671875 0 L 850.304688 0 L 850.304688 246.558594 L 602.671875 246.558594 Z M 602.671875 0 " clip-rule="nonzero"/></clipPath><clipPath id="b1909e919e"><path d="M 870.921875 0 L 1118.558594 0 L 1118.558594 246.558594 L 870.921875 246.558594 Z M 870.921875 0 " clip-rule="nonzero"/></clipPath><clipPath id="799eb64936"><path d="M 335.191406 0 L 582.824219 0 L 582.824219 246.558594 L 335.191406 246.558594 Z M 335.191406 0 " clip-rule="nonzero"/></clipPath><clipPath id="cc159264ca"><path d="M 870.921875 281.609375 L 1118.558594 281.609375 L 1118.558594 528.167969 L 870.921875 528.167969 Z M 870.921875 281.609375 " clip-rule="nonzero"/></clipPath><clipPath id="25311eb956"><path d="M 870.921875 563.441406 L 1118.558594 563.441406 L 1118.558594 810 L 870.921875 810 Z M 870.921875 563.441406 " clip-rule="nonzero"/></clipPath><clipPath id="8ce6fc649d"><path d="M 602.671875 563.441406 L 850.304688 563.441406 L 850.304688 810 L 602.671875 810 Z M 602.671875 563.441406 " clip-rule="nonzero"/></clipPath><clipPath id="33afd82a20"><path d="M 335.191406 563.441406 L 582.824219 563.441406 L 582.824219 810 L 335.191406 810 Z M 335.191406 563.441406 " clip-rule="nonzero"/></clipPath><clipPath id="d1d5854f40"><path d="M 335.191406 281.609375 L 582.824219 281.609375 L 582.824219 528.167969 L 335.191406 528.167969 Z M 335.191406 281.609375 " clip-rule="nonzero"/></clipPath></defs><g clip-path="url(#68ce6a064d)"><path fill="#03b4b3" d="M 602.671875 281.609375 L 850.191406 281.609375 L 850.191406 528.167969 L 602.671875 528.167969 Z M 602.671875 281.609375 " fill-opacity="1" fill-rule="nonzero"/></g><g clip-path="url(#9aa9c57009)"><path fill="#03b4b3" d="M 602.671875 0 L 850.191406 0 L 850.191406 246.558594 L 602.671875 246.558594 Z M 602.671875 0 " fill-opacity="1" fill-rule="nonzero"/></g><g clip-path="url(#b1909e919e)"><path fill="#340082" d="M 870.921875 0 L 1118.445312 0 L 1118.445312 246.558594 L 870.921875 246.558594 Z M 870.921875 0 " fill-opacity="1" fill-rule="nonzero"/></g><g clip-path="url(#799eb64936)"><path fill="#340082" d="M 335.191406 0 L 582.710938 0 L 582.710938 246.558594 L 335.191406 246.558594 Z M 335.191406 0 " fill-opacity="1" fill-rule="nonzero"/></g><g clip-path="url(#cc159264ca)"><path fill="#340082" d="M 870.921875 281.609375 L 1118.445312 281.609375 L 1118.445312 528.167969 L 870.921875 528.167969 Z M 870.921875 281.609375 " fill-opacity="1" fill-rule="nonzero"/></g><g clip-path="url(#25311eb956)"><path fill="#340082" d="M 870.921875 563.441406 L 1118.445312 563.441406 L 1118.445312 810 L 870.921875 810 Z M 870.921875 563.441406 " fill-opacity="1" fill-rule="nonzero"/></g><g clip-path="url(#8ce6fc649d)"><path fill="#340082" d="M 602.671875 563.441406 L 850.191406 563.441406 L 850.191406 810 L 602.671875 810 Z M 602.671875 563.441406 " fill-opacity="1" fill-rule="nonzero"/></g><g clip-path="url(#33afd82a20)"><path fill="#340082" d="M 335.191406 563.441406 L 582.710938 563.441406 L 582.710938 810 L 335.191406 810 Z M 335.191406 563.441406 " fill-opacity="1" fill-rule="nonzero"/></g><g clip-path="url(#d1d5854f40)"><path fill="#340082" d="M 335.191406 281.609375 L 582.710938 281.609375 L 582.710938 528.167969 L 335.191406 528.167969 Z M 335.191406 281.609375 " fill-opacity="1" fill-rule="nonzero"/></g></svg>