<svg xmlns="http://www.w3.org/2000/svg" xmlns:xlink="http://www.w3.org/1999/xlink" width="1920" zoomAndPan="magnify" viewBox="0 0 1440 809.999993" height="1080" preserveAspectRatio="xMidYMid meet" version="1.0"><path fill="#02b4b3" d="M 1079.015625 103.949219 L 1145.085938 103.949219 L 1145.085938 169.582031 L 1079.015625 169.582031 Z M 1079.015625 103.949219 " fill-opacity="1" fill-rule="nonzero"/><path fill="#02b4b3" d="M 1151.144531 103.949219 L 1217.214844 103.949219 L 1217.214844 169.582031 L 1151.144531 169.582031 Z M 1151.144531 103.949219 " fill-opacity="1" fill-rule="nonzero"/><path fill="#02b4b3" d="M 1223.253906 103.949219 L 1289.324219 103.949219 L 1289.324219 169.582031 L 1223.253906 169.582031 Z M 1223.253906 103.949219 " fill-opacity="1" fill-rule="nonzero"/><path fill="#02b4b3" d="M 1295.386719 103.949219 L 1361.457031 103.949219 L 1361.457031 169.582031 L 1295.386719 169.582031 Z M 1295.386719 103.949219 " fill-opacity="1" fill-rule="nonzero"/><path fill="#02b4b3" d="M 1367.515625 103.949219 L 1433.585938 103.949219 L 1433.585938 169.582031 L 1367.515625 169.582031 Z M 1367.515625 103.949219 " fill-opacity="1" fill-rule="nonzero"/><path fill="#02b4b3" d="M 1223.253906 175.941406 L 1289.324219 175.941406 L 1289.324219 241.574219 L 1223.253906 241.574219 Z M 1223.253906 175.941406 " fill-opacity="1" fill-rule="nonzero"/><path fill="#02b4b3" d="M 1223.253906 247.933594 L 1289.324219 247.933594 L 1289.324219 313.566406 L 1223.253906 313.566406 Z M 1223.253906 247.933594 " fill-opacity="1" fill-rule="nonzero"/><path fill="#02b4b3" d="M 1223.253906 319.988281 L 1289.324219 319.988281 L 1289.324219 385.621094 L 1223.253906 385.621094 Z M 1223.253906 319.988281 " fill-opacity="1" fill-rule="nonzero"/><path fill="#02b4b3" d="M 1223.253906 391.894531 L 1289.324219 391.894531 L 1289.324219 457.527344 L 1223.253906 457.527344 Z M 1223.253906 391.894531 " fill-opacity="1" fill-rule="nonzero"/><path fill="#02b4b3" d="M 1223.253906 463.824219 L 1289.324219 463.824219 L 1289.324219 529.457031 L 1223.253906 529.457031 Z M 1223.253906 463.824219 " fill-opacity="1" fill-rule="nonzero"/><path fill="#ffffff" d="M 362.929688 338.960938 C 362.929688 369.722656 358.695312 396.75 350.207031 420.015625 C 341.71875 443.304688 329.789062 462.726562 314.398438 478.304688 C 299.011719 493.902344 280.355469 505.523438 258.453125 513.214844 C 236.550781 520.90625 211.984375 524.75 184.753906 524.75 C 157.519531 524.75 133.640625 520.90625 111.933594 513.214844 C 90.226562 505.523438 71.679688 493.988281 56.289062 478.605469 C 40.898438 463.222656 29.058594 444.1875 20.78125 421.5 C 12.484375 398.835938 8.359375 372.496094 8.359375 342.503906 L 8.359375 104.054688 L 80.574219 104.054688 L 80.574219 339.539062 C 80.574219 378.210938 89.902344 407.578125 108.558594 427.707031 C 127.214844 447.816406 152.984375 457.871094 185.957031 457.871094 C 218.925781 457.871094 244.09375 448.203125 262.75 428.890625 C 281.386719 409.578125 290.714844 380.765625 290.714844 342.503906 L 290.714844 104.054688 L 362.929688 104.054688 Z M 362.929688 338.960938 " fill-opacity="1" fill-rule="nonzero"/><path fill="#ffffff" d="M 717.503906 524.75 L 645.285156 524.75 L 645.285156 286.300781 C 645.285156 248.039062 635.957031 219.230469 617.324219 199.914062 C 598.667969 180.582031 573.070312 170.933594 540.527344 170.933594 C 507.988281 170.933594 481.789062 180.988281 463.132812 201.097656 C 444.476562 221.226562 435.148438 250.597656 435.148438 289.265625 L 435.148438 524.75 L 362.929688 524.75 L 362.929688 286.300781 C 362.929688 256.3125 367.078125 229.992188 375.355469 207.304688 C 383.648438 184.621094 395.472656 165.585938 410.859375 150.203125 C 426.25 134.820312 444.796875 123.28125 466.503906 115.59375 C 488.191406 107.902344 512.480469 104.054688 539.324219 104.054688 C 566.167969 104.054688 591.121094 107.902344 613.023438 115.59375 C 634.925781 123.28125 653.582031 134.90625 668.96875 150.503906 C 684.359375 166.078125 696.289062 185.5 704.777344 208.789062 C 713.269531 232.054688 717.503906 259.082031 717.503906 289.847656 Z M 717.503906 524.75 " fill-opacity="1" fill-rule="nonzero"/><path fill="#ffffff" d="M 64.929688 596.269531 L 58.523438 596.269531 L 52.355469 582.347656 L 23.664062 582.347656 L 17.40625 596.269531 L 11.304688 596.269531 L 35.332031 543.183594 L 40.898438 543.183594 Z M 38.042969 550.1875 L 25.984375 577.0625 L 50.011719 577.0625 Z M 38.042969 550.1875 " fill-opacity="1" fill-rule="nonzero"/><path fill="#ffffff" d="M 130.503906 591.714844 C 129.023438 592.855469 127.429688 593.820312 125.734375 594.617188 C 124.035156 595.410156 122.1875 596.054688 120.230469 596.507812 C 118.273438 596.957031 116.082031 597.195312 113.675781 597.195312 C 109.851562 597.195312 106.347656 596.484375 103.121094 595.089844 C 99.898438 593.691406 97.125 591.757812 94.761719 589.332031 C 92.398438 586.902344 90.550781 584.023438 89.214844 580.714844 C 87.882812 577.40625 87.21875 573.839844 87.21875 570.019531 C 87.21875 566.195312 87.882812 562.714844 89.214844 559.40625 C 90.550781 556.097656 92.398438 553.195312 94.761719 550.703125 C 97.125 548.210938 99.941406 546.257812 103.1875 544.839844 C 106.453125 543.398438 110.023438 542.691406 113.890625 542.691406 C 116.296875 542.691406 118.46875 542.882812 120.402344 543.292969 C 122.335938 543.699219 124.121094 544.257812 125.796875 544.988281 C 127.453125 545.71875 128.976562 546.601562 130.398438 547.632812 C 131.792969 548.664062 133.148438 549.800781 134.460938 551.046875 L 130.398438 555.410156 C 128.140625 553.304688 125.710938 551.5625 123.132812 550.210938 C 120.554688 548.855469 117.4375 548.167969 113.824219 548.167969 C 110.925781 548.167969 108.214844 548.726562 105.722656 549.824219 C 103.230469 550.917969 101.082031 552.464844 99.253906 554.421875 C 97.425781 556.375 95.988281 558.675781 94.953125 561.316406 C 93.921875 563.960938 93.40625 566.796875 93.40625 569.867188 C 93.40625 572.9375 93.921875 575.796875 94.953125 578.460938 C 95.988281 581.125 97.40625 583.421875 99.253906 585.378906 C 101.082031 587.332031 103.25 588.878906 105.722656 590.019531 C 108.195312 591.15625 110.902344 591.714844 113.824219 591.714844 C 117.4375 591.714844 120.554688 591.050781 123.175781 589.71875 C 125.777344 588.386719 128.355469 586.515625 130.847656 584.109375 L 134.761719 587.957031 C 133.40625 589.351562 131.988281 590.621094 130.503906 591.757812 Z M 130.503906 591.714844 " fill-opacity="1" fill-rule="nonzero"/><path fill="#ffffff" d="M 201.90625 591.714844 C 200.421875 592.855469 198.832031 593.820312 197.113281 594.617188 C 195.414062 595.410156 193.566406 596.054688 191.609375 596.507812 C 189.652344 596.957031 187.460938 597.195312 185.054688 597.195312 C 181.226562 597.195312 177.726562 596.484375 174.5 595.089844 C 171.277344 593.691406 168.503906 591.757812 166.140625 589.332031 C 163.777344 586.902344 161.925781 584.023438 160.59375 580.714844 C 159.261719 577.40625 158.597656 573.839844 158.597656 570.019531 C 158.597656 566.195312 159.261719 562.714844 160.59375 559.40625 C 161.925781 556.097656 163.777344 553.195312 166.140625 550.703125 C 168.503906 548.210938 171.320312 546.257812 174.566406 544.839844 C 177.8125 543.421875 181.398438 542.691406 185.269531 542.691406 C 187.675781 542.691406 189.847656 542.882812 191.78125 543.292969 C 193.714844 543.699219 195.5 544.257812 197.175781 544.988281 C 198.832031 545.71875 200.355469 546.601562 201.777344 547.632812 C 203.171875 548.664062 204.527344 549.800781 205.835938 551.046875 L 201.777344 555.410156 C 199.519531 553.304688 197.089844 551.5625 194.511719 550.210938 C 191.933594 548.855469 188.816406 548.167969 185.203125 548.167969 C 182.304688 548.167969 179.59375 548.726562 177.101562 549.824219 C 174.609375 550.917969 172.457031 552.464844 170.632812 554.421875 C 168.804688 556.375 167.363281 558.675781 166.332031 561.316406 C 165.300781 563.960938 164.785156 566.796875 164.785156 569.867188 C 164.785156 572.9375 165.300781 575.796875 166.332031 578.460938 C 167.363281 581.125 168.785156 583.421875 170.632812 585.378906 C 172.457031 587.332031 174.628906 588.878906 177.101562 590.019531 C 179.59375 591.15625 182.28125 591.714844 185.203125 591.714844 C 188.816406 591.714844 191.933594 591.050781 194.554688 589.71875 C 197.15625 588.386719 199.734375 586.515625 202.226562 584.109375 L 206.136719 587.957031 C 204.785156 589.351562 203.367188 590.621094 201.882812 591.757812 Z M 201.90625 591.714844 " fill-opacity="1" fill-rule="nonzero"/><path fill="#ffffff" d="M 281.859375 580.285156 C 280.546875 583.574219 278.722656 586.472656 276.355469 588.988281 C 273.992188 591.5 271.15625 593.5 267.84375 594.980469 C 264.535156 596.464844 260.859375 597.195312 256.839844 597.195312 C 252.820312 597.195312 249.167969 596.464844 245.878906 595.003906 C 242.589844 593.542969 239.773438 591.585938 237.410156 589.09375 C 235.046875 586.601562 233.21875 583.722656 231.953125 580.4375 C 230.664062 577.148438 230.039062 573.667969 230.039062 570.019531 C 230.039062 566.367188 230.683594 562.886719 231.996094 559.597656 C 233.304688 556.3125 235.132812 553.410156 237.496094 550.898438 C 239.863281 548.382812 242.699219 546.386719 246.007812 544.902344 C 249.316406 543.421875 252.992188 542.691406 257.011719 542.691406 C 261.03125 542.691406 264.6875 543.421875 267.972656 544.882812 C 271.261719 546.34375 274.078125 548.296875 276.441406 550.789062 C 278.808594 553.28125 280.632812 556.160156 281.902344 559.449219 C 283.191406 562.734375 283.816406 566.214844 283.816406 569.867188 C 283.816406 573.519531 283.167969 577 281.859375 580.285156 Z M 276.097656 561.488281 C 275.066406 558.824219 273.625 556.527344 271.757812 554.570312 C 269.910156 552.617188 267.695312 551.046875 265.160156 549.910156 C 262.621094 548.75 259.851562 548.167969 256.839844 548.167969 C 253.832031 548.167969 251.058594 548.726562 248.523438 549.867188 C 245.988281 551.003906 243.816406 552.53125 242.011719 554.507812 C 240.207031 556.460938 238.785156 558.761719 237.753906 561.402344 C 236.722656 564.046875 236.207031 566.859375 236.207031 569.867188 C 236.207031 572.875 236.722656 575.710938 237.753906 578.375 C 238.785156 581.039062 240.226562 583.335938 242.097656 585.292969 C 243.945312 587.246094 246.160156 588.816406 248.695312 589.953125 C 251.230469 591.113281 254.003906 591.695312 257.011719 591.695312 C 260.023438 591.695312 262.792969 591.136719 265.332031 589.996094 C 267.867188 588.859375 270.039062 587.332031 271.84375 585.355469 C 273.648438 583.402344 275.066406 581.101562 276.097656 578.460938 C 277.128906 575.816406 277.644531 573.003906 277.644531 569.996094 C 277.644531 566.988281 277.128906 564.152344 276.097656 561.488281 Z M 276.097656 561.488281 " fill-opacity="1" fill-rule="nonzero"/><path fill="#ffffff" d="M 356.804688 573.753906 C 356.804688 577.621094 356.269531 581.015625 355.214844 583.917969 C 354.160156 586.816406 352.65625 589.265625 350.746094 591.222656 C 348.808594 593.175781 346.511719 594.636719 343.824219 595.625 C 341.136719 596.613281 338.128906 597.085938 334.816406 597.085938 C 331.507812 597.085938 328.585938 596.59375 325.898438 595.625 C 323.210938 594.660156 320.910156 593.199219 318.976562 591.265625 C 317.042969 589.332031 315.558594 586.925781 314.484375 584.066406 C 313.433594 581.210938 312.894531 577.921875 312.894531 574.207031 L 312.894531 543.570312 L 318.847656 543.570312 L 318.847656 573.839844 C 318.847656 579.554688 320.265625 583.960938 323.105469 587.011719 C 325.941406 590.082031 329.894531 591.609375 334.96875 591.609375 C 340.039062 591.609375 343.714844 590.148438 346.574219 587.246094 C 349.433594 584.347656 350.875 579.984375 350.875 574.226562 L 350.875 543.59375 L 356.828125 543.59375 L 356.828125 573.777344 Z M 356.804688 573.753906 " fill-opacity="1" fill-rule="nonzero"/><path fill="#ffffff" d="M 427.023438 543.570312 L 432.828125 543.570312 L 432.828125 596.269531 L 428.078125 596.269531 L 394.03125 553.046875 L 394.03125 596.269531 L 388.226562 596.269531 L 388.226562 543.570312 L 393.792969 543.570312 L 427.023438 585.808594 Z M 427.023438 543.570312 " fill-opacity="1" fill-rule="nonzero"/><path fill="#ffffff" d="M 484.945312 596.269531 L 478.992188 596.269531 L 478.992188 549.070312 L 461.28125 549.070312 L 461.28125 543.570312 L 502.636719 543.570312 L 502.636719 549.070312 L 484.925781 549.070312 L 484.925781 596.269531 Z M 484.945312 596.269531 " fill-opacity="1" fill-rule="nonzero"/><path fill="#ffffff" d="M 531.714844 543.570312 L 537.667969 543.570312 L 537.667969 596.269531 L 531.714844 596.269531 Z M 531.714844 543.570312 " fill-opacity="1" fill-rule="nonzero"/><path fill="#ffffff" d="M 609.21875 543.570312 L 615.023438 543.570312 L 615.023438 596.269531 L 610.273438 596.269531 L 576.226562 553.046875 L 576.226562 596.269531 L 570.425781 596.269531 L 570.425781 543.570312 L 575.992188 543.570312 L 609.21875 585.808594 Z M 609.21875 543.570312 " fill-opacity="1" fill-rule="nonzero"/><path fill="#ffffff" d="M 683.84375 594.808594 C 680.253906 596.378906 676.214844 597.171875 671.742188 597.171875 C 667.574219 597.171875 663.855469 596.464844 660.566406 595.066406 C 657.277344 593.671875 654.460938 591.738281 652.121094 589.265625 C 649.777344 586.816406 647.992188 583.917969 646.769531 580.609375 C 645.542969 577.300781 644.917969 573.753906 644.917969 569.996094 C 644.917969 566.238281 645.566406 562.929688 646.832031 559.597656 C 648.121094 556.289062 649.90625 553.367188 652.226562 550.855469 C 654.527344 548.339844 657.320312 546.34375 660.546875 544.859375 C 663.789062 543.378906 667.378906 542.648438 671.355469 542.648438 C 673.570312 542.648438 675.589844 542.796875 677.417969 543.097656 C 679.246094 543.398438 680.964844 543.851562 682.53125 544.453125 C 684.125 545.054688 685.605469 545.804688 686.980469 546.664062 C 688.359375 547.523438 689.710938 548.535156 691 549.628906 L 687.152344 554.140625 C 686.144531 553.238281 685.089844 552.421875 683.996094 551.691406 C 682.898438 550.960938 681.695312 550.339844 680.425781 549.800781 C 679.160156 549.265625 677.738281 548.855469 676.214844 548.554688 C 674.6875 548.253906 672.988281 548.105469 671.140625 548.105469 C 668.21875 548.105469 665.53125 548.683594 663.082031 549.84375 C 660.632812 551.003906 658.503906 552.550781 656.761719 554.527344 C 655 556.484375 653.625 558.78125 652.613281 561.425781 C 651.605469 564.066406 651.109375 566.859375 651.109375 569.824219 C 651.109375 572.980469 651.605469 575.925781 652.570312 578.609375 C 653.558594 581.296875 654.9375 583.636719 656.761719 585.59375 C 658.566406 587.546875 660.761719 589.09375 663.316406 590.191406 C 665.875 591.285156 668.753906 591.84375 671.980469 591.84375 C 674.988281 591.84375 677.824219 591.328125 680.492188 590.296875 C 683.15625 589.265625 685.390625 588.019531 687.195312 586.558594 L 687.195312 573.410156 L 671.164062 573.410156 L 671.164062 568.148438 L 692.933594 568.148438 L 692.933594 589.09375 C 690.484375 591.308594 687.453125 593.199219 683.867188 594.765625 Z M 683.84375 594.808594 " fill-opacity="1" fill-rule="nonzero"/><path fill="#ffffff" d="M 999.855469 496.457031 L 999.855469 551.800781 C 999.855469 590.0625 990.527344 618.871094 971.894531 638.164062 C 953.214844 657.5 927.640625 667.144531 895.078125 667.144531 C 862.515625 667.144531 836.335938 657.113281 817.703125 636.984375 C 799.046875 616.851562 789.71875 587.484375 789.71875 548.8125 L 789.71875 523.65625 L 717.523438 523.65625 L 717.523438 551.777344 C 717.523438 581.769531 721.671875 608.085938 729.945312 630.773438 C 738.242188 653.460938 750.085938 672.472656 765.453125 687.878906 C 780.863281 703.261719 799.410156 714.796875 821.097656 722.488281 C 842.785156 730.179688 867.074219 734.023438 893.917969 734.023438 C 920.761719 734.023438 945.714844 730.179688 967.59375 722.488281 C 989.476562 714.796875 1008.152344 703.152344 1023.542969 687.578125 C 1038.929688 672 1050.859375 652.558594 1059.347656 629.292969 C 1067.859375 606.023438 1072.09375 578.976562 1072.09375 548.234375 L 1072.09375 104.054688 L 999.878906 104.054688 L 999.878906 342.503906 C 999.878906 380.789062 990.550781 409.578125 971.914062 428.890625 C 953.238281 448.226562 927.660156 457.871094 895.097656 457.871094 C 862.539062 457.871094 836.359375 447.816406 817.722656 427.707031 C 799.070312 407.578125 789.742188 378.1875 789.742188 339.539062 L 789.742188 104.054688 L 717.546875 104.054688 L 717.546875 342.503906 C 717.546875 372.496094 721.691406 398.8125 729.96875 421.5 C 738.265625 444.207031 750.105469 463.222656 765.476562 478.605469 C 780.886719 493.988281 799.433594 505.523438 821.121094 513.214844 C 842.808594 520.90625 867.09375 524.75 893.9375 524.75 C 920.785156 524.75 945.738281 520.90625 967.617188 513.214844 C 979.289062 509.109375 990.035156 503.910156 999.878906 497.53125 " fill-opacity="1" fill-rule="nonzero"/></svg>