<?xml version="1.0" encoding="UTF-8"?>
<svg id="Layer_1" data-name="Layer 1" xmlns="http://www.w3.org/2000/svg" viewBox="0 0 850.39 449.49">
  <defs>
    <style>
      .cls-1 {
        fill: #3a0886;
      }

      .cls-2 {
        fill: #fff;
      }

      .cls-3 {
        fill: #02b4b3;
      }
    </style>
  </defs>
  <!-- <rect class="cls-1" y="0" width="850.39" height="449.49"/> -->
  <g>
    <g>
      <rect class="cls-3" x="602.02" y="89.91" width="30.74" height="30.55"/>
      <rect class="cls-3" x="635.58" y="89.91" width="30.74" height="30.55"/>
      <rect class="cls-3" x="669.13" y="89.91" width="30.74" height="30.55"/>
      <rect class="cls-3" x="702.69" y="89.91" width="30.74" height="30.55"/>
      <rect class="cls-3" x="736.25" y="89.91" width="30.74" height="30.55"/>
      <rect class="cls-3" x="669.13" y="123.42" width="30.74" height="30.55"/>
      <rect class="cls-3" x="669.13" y="156.93" width="30.74" height="30.55"/>
      <rect class="cls-3" x="669.13" y="190.47" width="30.74" height="30.55"/>
      <rect class="cls-3" x="669.13" y="223.94" width="30.74" height="30.55"/>
      <rect class="cls-3" x="669.13" y="257.42" width="30.74" height="30.55"/>
    </g>
    <path class="cls-2" d="M268.85,199.3c0,14.32-1.97,26.9-5.92,37.73-3.95,10.84-9.5,19.88-16.66,27.13-7.16,7.26-15.84,12.67-26.03,16.25-10.19,3.58-21.62,5.37-34.29,5.37s-23.78-1.79-33.88-5.37c-10.1-3.58-18.73-8.95-25.89-16.11-7.16-7.16-12.67-16.02-16.52-26.58-3.86-10.55-5.78-22.81-5.78-36.77v-110.99h33.6v109.61c0,18,4.34,31.67,13.02,41.04,8.68,9.36,20.67,14.04,36.01,14.04s27.05-4.5,35.73-13.49c8.67-8.99,13.01-22.4,13.01-40.21v-110.99h33.6v109.34Z"/>
    <path class="cls-2" d="M433.82,285.78h-33.6v-110.99c0-17.81-4.34-31.22-13.01-40.21-8.68-9-20.59-13.49-35.73-13.49s-27.33,4.68-36.01,14.04c-8.68,9.37-13.02,23.04-13.02,41.04v109.61h-33.6v-110.99c0-13.96,1.93-26.21,5.78-36.77,3.86-10.56,9.36-19.42,16.52-26.58,7.16-7.16,15.79-12.53,25.89-16.11,10.09-3.58,21.39-5.37,33.88-5.37s24.1,1.79,34.29,5.37c10.19,3.58,18.87,8.99,26.03,16.25,7.16,7.25,12.71,16.29,16.66,27.13,3.95,10.83,5.92,23.41,5.92,37.73v109.34Z"/>
    <g>
      <path class="cls-2" d="M130.2,319.07h-2.98l-2.87-6.48h-13.35l-2.91,6.48h-2.84l11.18-24.71h2.59l11.18,24.71ZM117.69,297.62l-5.61,12.51h11.18l-5.57-12.51Z"/>
      <path class="cls-2" d="M160.71,316.95c-.69.53-1.43.98-2.22,1.35-.79.37-1.65.67-2.56.88-.91.21-1.93.32-3.05.32-1.78,0-3.41-.33-4.91-.98-1.5-.65-2.79-1.55-3.89-2.68-1.1-1.13-1.96-2.47-2.58-4.01-.62-1.54-.93-3.2-.93-4.98s.31-3.4.93-4.94c.62-1.54,1.48-2.89,2.58-4.05,1.1-1.16,2.41-2.07,3.92-2.73,1.52-.67,3.18-1,4.98-1,1.12,0,2.13.09,3.03.28.9.19,1.73.45,2.51.79.77.34,1.48.75,2.14,1.23.65.48,1.28,1.01,1.89,1.59l-1.89,2.03c-1.05-.98-2.18-1.79-3.38-2.42s-2.65-.95-4.33-.95c-1.35,0-2.61.26-3.77.77-1.16.51-2.16,1.23-3.01,2.14-.85.91-1.52,1.98-2,3.21-.48,1.23-.72,2.55-.72,3.98s.24,2.76.72,4c.48,1.24,1.14,2.31,2,3.22.85.91,1.86,1.63,3.01,2.16s2.41.79,3.77.79c1.68,0,3.13-.31,4.35-.93,1.21-.62,2.41-1.49,3.57-2.61l1.82,1.79c-.63.65-1.29,1.24-1.98,1.77Z"/>
      <path class="cls-2" d="M193.93,316.95c-.69.53-1.43.98-2.23,1.35-.79.37-1.65.67-2.56.88-.91.21-1.93.32-3.05.32-1.78,0-3.41-.33-4.91-.98-1.5-.65-2.79-1.55-3.89-2.68-1.1-1.13-1.96-2.47-2.58-4.01-.62-1.54-.93-3.2-.93-4.98s.31-3.4.93-4.94c.62-1.54,1.48-2.89,2.58-4.05,1.1-1.16,2.41-2.07,3.92-2.73s3.18-1,4.98-1c1.12,0,2.13.09,3.03.28s1.73.45,2.51.79c.77.34,1.48.75,2.14,1.23.65.48,1.28,1.01,1.89,1.59l-1.89,2.03c-1.05-.98-2.18-1.79-3.38-2.42s-2.65-.95-4.33-.95c-1.35,0-2.61.26-3.77.77-1.16.51-2.16,1.23-3.01,2.14-.85.91-1.52,1.98-2,3.21-.48,1.23-.72,2.55-.72,3.98s.24,2.76.72,4c.48,1.24,1.14,2.31,2,3.22.85.91,1.86,1.63,3.01,2.16,1.16.53,2.41.79,3.77.79,1.68,0,3.13-.31,4.35-.93,1.21-.62,2.41-1.49,3.57-2.61l1.82,1.79c-.63.65-1.29,1.24-1.98,1.77Z"/>
      <path class="cls-2" d="M231.13,311.63c-.61,1.53-1.46,2.88-2.56,4.05-1.1,1.17-2.42,2.1-3.96,2.79-1.54.69-3.25,1.03-5.12,1.03s-3.57-.34-5.1-1.02c-1.53-.68-2.84-1.59-3.94-2.75-1.1-1.16-1.95-2.5-2.54-4.03-.6-1.53-.89-3.15-.89-4.85s.3-3.32.91-4.85c.61-1.53,1.46-2.88,2.56-4.05,1.1-1.17,2.42-2.1,3.96-2.79,1.54-.69,3.25-1.03,5.12-1.03s3.57.34,5.1,1.02c1.53.68,2.84,1.59,3.94,2.75,1.1,1.16,1.95,2.5,2.54,4.03.6,1.53.89,3.15.89,4.85s-.3,3.32-.91,4.85ZM228.45,302.88c-.48-1.24-1.15-2.31-2.02-3.22-.86-.91-1.89-1.64-3.07-2.17-1.18-.54-2.47-.81-3.87-.81s-2.69.26-3.87.79-2.19,1.24-3.03,2.16c-.84.91-1.5,1.98-1.98,3.21-.48,1.23-.72,2.54-.72,3.94s.24,2.72.72,3.96c.48,1.24,1.15,2.31,2.02,3.22.86.91,1.89,1.64,3.07,2.17,1.18.54,2.47.81,3.87.81s2.69-.26,3.87-.79c1.18-.53,2.19-1.24,3.03-2.16.84-.91,1.5-1.98,1.98-3.21.48-1.23.72-2.54.72-3.94s-.24-2.72-.72-3.96Z"/>
      <path class="cls-2" d="M266,308.59c0,1.8-.25,3.38-.74,4.73-.49,1.35-1.19,2.49-2.08,3.4-.9.91-1.97,1.59-3.22,2.05s-2.65.68-4.19.68-2.9-.23-4.15-.68-2.32-1.13-3.22-2.03-1.59-2.02-2.09-3.35c-.49-1.33-.74-2.86-.74-4.59v-14.26h2.77v14.09c0,2.66.66,4.71,1.98,6.13,1.32,1.43,3.16,2.14,5.52,2.14s4.07-.68,5.4-2.03c1.33-1.35,2-3.38,2-6.06v-14.26h2.77v14.05Z"/>
      <path class="cls-2" d="M298.67,294.54h2.7v24.53h-2.21l-15.84-20.12v20.12h-2.7v-24.53h2.59l15.46,19.66v-19.66Z"/>
      <path class="cls-2" d="M325.62,319.07h-2.77v-21.97h-8.24v-2.56h19.24v2.56h-8.24v21.97Z"/>
      <path class="cls-2" d="M350.15,294.54v24.53h-2.77v-24.53h2.77Z"/>
      <path class="cls-2" d="M383.44,294.54h2.7v24.53h-2.21l-15.84-20.12v20.12h-2.7v-24.53h2.59l15.46,19.66v-19.66Z"/>
      <path class="cls-2" d="M418.16,318.39c-1.67.73-3.55,1.1-5.63,1.1-1.94,0-3.67-.33-5.2-.98-1.53-.65-2.84-1.55-3.93-2.7-1.09-1.14-1.92-2.49-2.49-4.03-.57-1.54-.86-3.19-.86-4.94s.3-3.29.89-4.84c.6-1.54,1.43-2.9,2.51-4.07,1.07-1.17,2.37-2.1,3.87-2.79,1.51-.69,3.18-1.03,5.03-1.03,1.03,0,1.97.07,2.82.21.85.14,1.65.35,2.38.63.74.28,1.43.63,2.07,1.03s1.27.87,1.87,1.38l-1.79,2.1c-.47-.42-.96-.8-1.47-1.14-.51-.34-1.07-.63-1.66-.88s-1.25-.44-1.96-.58c-.71-.14-1.5-.21-2.36-.21-1.36,0-2.61.27-3.75.81s-2.13,1.26-2.94,2.18c-.82.91-1.46,1.98-1.93,3.21-.47,1.23-.7,2.53-.7,3.91,0,1.47.23,2.84.68,4.09.46,1.25,1.1,2.34,1.95,3.25.84.91,1.86,1.63,3.05,2.14s2.53.77,4.03.77c1.4,0,2.72-.24,3.96-.72,1.24-.48,2.28-1.06,3.12-1.74v-6.12h-7.46v-2.45h10.13v9.75c-1.14,1.03-2.55,1.91-4.22,2.64Z"/>
    </g>
    <path class="cls-2" d="M565.19,272.61v25.76c0,17.81-4.34,31.22-13.01,40.2-8.69,9-20.59,13.49-35.74,13.49s-27.33-4.67-36-14.04c-8.68-9.37-13.02-23.04-13.02-41.04v-11.71h-33.59v13.09c0,13.96,1.93,26.21,5.78,36.77,3.86,10.56,9.37,19.41,16.52,26.58,7.17,7.16,15.8,12.53,25.89,16.11s21.39,5.37,33.88,5.37,24.1-1.79,34.28-5.37,18.87-9,26.03-16.25c7.16-7.25,12.71-16.3,16.66-27.13,3.96-10.83,5.93-23.42,5.93-37.73V89.96h-33.6v110.99c0,17.82-4.34,31.22-13.01,40.21-8.69,9-20.59,13.49-35.74,13.49s-27.33-4.68-36-14.04c-8.68-9.37-13.02-23.05-13.02-41.04v-109.61h-33.59v110.99c0,13.96,1.93,26.21,5.78,36.77,3.86,10.57,9.37,19.42,16.52,26.58,7.17,7.16,15.8,12.53,25.89,16.11,10.09,3.58,21.39,5.37,33.88,5.37s24.1-1.79,34.28-5.37c5.43-1.91,10.43-4.33,15.01-7.3"/>
  </g>
</svg>